<?xml version="1.0" encoding="UTF-8" standalone="no"?>
<!-- Created with Inkscape (http://www.inkscape.org/) -->

<svg
   version="1.1"
   id="svg1"
   width="524"
   height="524"
   viewBox="0 0 524 524"
   sodipodi:docname="foreground.svg"
   inkscape:version="1.4.2 (f4327f4, 2025-05-13)"
   xmlns:inkscape="http://www.inkscape.org/namespaces/inkscape"
   xmlns:sodipodi="http://sodipodi.sourceforge.net/DTD/sodipodi-0.dtd"
   xmlns="http://www.w3.org/2000/svg"
   xmlns:svg="http://www.w3.org/2000/svg">
  <defs
     id="defs1" />
  <sodipodi:namedview
     id="namedview1"
     pagecolor="#505050"
     bordercolor="#eeeeee"
     borderopacity="1"
     inkscape:showpageshadow="0"
     inkscape:pageopacity="0"
     inkscape:pagecheckerboard="0"
     inkscape:deskcolor="#505050"
     inkscape:zoom="1.7385496"
     inkscape:cx="270.91548"
     inkscape:cy="323.54556"
     inkscape:window-width="1920"
     inkscape:window-height="1171"
     inkscape:window-x="-9"
     inkscape:window-y="-9"
     inkscape:window-maximized="1"
     inkscape:current-layer="g147" />
  <g
     id="g147"
     style="display:inline"
     transform="matrix(0.6397881,0,0,0.6397881,91.816365,31.776244)"
     inkscape:label="vetGestLink_Main">
    <path
       style="fill:#74a866"
       d="m 171.63368,456.05859 c 2.58621,-4.64674 8.74055,-13.79702 20.43694,-30.38566 2.25972,-3.20489 3.8555,-6.08014 3.5462,-6.38945 -1.60133,-1.60133 -17.56311,13.62333 -27.64477,26.36811 -3.41462,4.31663 -6.36099,8.01667 -6.54747,8.22231 -0.42669,0.47056 0.41441,-5.68952 1.75783,-12.8739 1.54568,-8.26606 6.84647,-18.81225 12.62251,-25.11312 l 5.14557,-5.61313 6.88819,-3.61964 c 3.7885,-1.9908 11.06288,-4.73686 16.16528,-6.10235 l 9.27709,-2.48272 -0.53027,7.71548 c -1.07453,15.63451 -9.06159,32.05948 -20.44539,42.04488 -5.34423,4.68774 -16.15011,11.15235 -21.17171,12.66596 l -2.36632,0.71325 z m -56.69658,-48.6423 c -5.17976,-2.52104 -12.12209,-6.52193 -15.427419,-8.89086 C 92.488215,393.49314 80.781663,381.57333 76.084284,374.6733 68.231267,363.13792 61.893932,345.84698 58.428206,326.5 l -1.791353,-10 -0.0031,-21.00879 c -0.0017,-11.55483 0.4175,-21.75771 0.931574,-22.67306 l 0.93468,-1.66427 11.137862,5.30228 c 21.927295,10.43868 43.745981,27.63612 56.404691,44.45804 18.25386,24.25722 23.41038,53.06774 14.65765,81.89531 l -1.30846,4.30951 -4.7553,-11.30951 c -5.79024,-13.77091 -18.29691,-37.22155 -27.84437,-52.2096 -8.004839,-12.56637 -20.708942,-30.01637 -21.370877,-29.35444 -0.24154,0.24154 4.252422,10.07262 9.986584,21.84685 C 112.10553,370.37859 128.43915,412 125.19647,412 c -0.4629,0 -5.07961,-2.06267 -10.25937,-4.58371 z M 205.5,240.65415 c -12.15485,-3.14702 -23.51172,-10.46181 -33.87897,-21.82093 -3.61849,-3.96468 -6.41627,-7.37131 -6.21729,-7.57029 0.19898,-0.19898 2.10204,0.82635 4.22902,2.27851 7.0221,4.79422 23.73655,12.38999 31.7772,14.44094 8.89316,2.26841 12.4402,2.4647 17.77298,0.98355 l 3.68295,-1.02291 4.3845,-4.87662 4.3845,-4.87662 1.72683,-5.34489 C 234.31147,209.9052 235.55994,204.125 236.1361,200 l 1.04757,-7.5 -1.20581,-22 -1.20582,-22 1.00214,-5 1.00214,-5 0.11184,2.85078 c 0.0615,1.56792 1.48126,7.55175 3.155,13.29738 1.67374,5.74563 3.97806,14.81278 5.12072,20.14922 l 2.07756,9.70262 0.0714,12 0.0714,12 -1.67107,6.24855 c -3.2916,12.30815 -8.54617,19.55488 -17.27621,23.82609 l -5.42623,2.6548 -6.25538,0.35964 C 213.31492,241.78687 208.25,241.36616 205.5,240.65415 Z"
       id="path149" />
    <path
       style="fill:#2b7030"
       d="M 329.65499,453.17126 328,451.34252 V 422.71454 394.08656 L 298.91043,393.79328 269.82086,393.5 267.91043,391.13922 266,388.77843 v -28.93467 -28.93467 l 2.45455,-2.45454 L 270.90909,326 H 299.45455 328 v -29.34501 -29.34501 l 1.82874,-1.65499 1.82874,-1.65499 29.42126,0.0153 c 16.18169,0.008 29.95561,0.35508 30.6087,0.77035 0.65309,0.41528 1.66559,2.01268 2.25,3.54979 L 395,271.1302 v 27.39162 27.39162 l 29.08174,0.29328 29.08174,0.29328 1.41826,1.94113 1.41826,1.94113 v 29.35432 29.35433 l -2.45455,2.45454 L 451.09091,394 H 423.04545 395 v 28.5 28.5 l -2,2 -2,2 h -29.84501 -29.84501 z"
       id="path148" />
    <path
       style="fill:#053d24"
       d="M 233.25711,522.54203 C 175.86807,515.6101 122.42426,490.23526 80.793305,450.15303 57.75757,427.97425 40.713843,404.54425 26.488306,375.5 11.532829,344.96543 4.3067955,319.55529 0.92760653,285.61655 L -0.2555964,273.7331 0.29659649,252.11655 C 0.97662908,225.49549 3.3565402,209.42614 10.088619,186 26.403522,129.22778 64.769626,77.122018 115,43.517798 147.80145,21.573563 181.2872,8.6745593 222,2.3004673 L 233.5,0.5 262,0.5180454 l 28.5,0.0180454 11,1.7618171 c 42.11893,6.7459867 79.72292,21.4300211 111.5,43.5397961 17.70681,12.319999 39.47988,32.72113 53.95723,50.557335 17.09389,21.059801 34.55988,52.340821 43.05213,77.104961 5.0127,14.61744 9.25566,31.62001 11.65464,46.70293 l 1.79683,11.29707 0.0196,29 0.0196,29 -1.31193,8.5 c -7.42629,48.11496 -22.33339,83.88071 -50.63287,121.48051 -10.06934,13.37852 -30.62911,34.57499 -43.5552,44.90403 -38.3469,30.64241 -81.33286,49.52962 -130,57.1195 l -10.5,1.63753 -21.5,0.37923 -21.5,0.37924 z M 291.5,506.38967 c 15.9122,-1.93579 31.94607,-5.58614 48.88382,-11.12911 l 13.88382,-4.54355 16.61618,-8.28391 c 26.92063,-13.42115 45.15861,-26.53555 66.65973,-47.9331 37.64764,-37.4663 61.56354,-85.21107 69.12576,-138 l 1.71904,-12 0.0178,-23.5 0.0177,-23.5 -1.7752,-12 C 498.76353,172.19816 474.96942,125.13221 436.4186,86.581395 398.1663,48.329092 351.11948,24.998413 297.23675,17.560634 231.40947,8.4740717 165.07371,25.236339 113.52254,63.983056 65.837253,99.824119 32.552538,151.72197 20.583296,208.89485 16.64987,227.68345 15.574279,239.14972 15.648684,261.5 l 0.06991,21 2.170208,14.29686 c 9.935097,65.45021 44.975447,123.25855 98.722828,162.86946 9.39349,6.92284 23.2808,15.79833 23.80105,15.21144 0.44804,-0.50544 -4.82575,-31.48941 -6.91526,-40.62776 l -1.65773,-7.25 -1.66984,-0.0197 c -3.09729,-0.0366 -18.28652,-5.86947 -25.70578,-9.87137 C 90.791115,409.7338 80.248806,400.98245 70.85839,389.21226 55.982102,370.56592 47.841795,349.45741 44.36013,320.5 l -1.563042,-13 0.597905,-16 c 0.328847,-8.8 1.260233,-20.5 2.069745,-26 0.809513,-5.5 1.486111,-10.32025 1.503552,-10.71167 0.05767,-1.29427 23.020433,7.18778 32.953724,12.17253 5.367332,2.69346 14.668105,8.16532 20.668386,12.15971 l 10.9096,7.26252 12.14192,12.05845 12.14192,12.05846 5.06478,7.81197 C 152.79357,336.73602 158,353.7923 158,374.5 c 0,12.68272 -2.25286,24.56462 -7.67897,40.5 l -4.59684,13.5 1.23927,7.3153 c 0.6816,4.02342 1.44789,7.10668 1.70287,6.85171 0.25497,-0.25498 1.09197,-3.15722 1.85999,-6.44941 C 155.68517,414.10359 171.14111,397.27551 193,389.9732 200.62073,387.42738 217.56795,384 222.53546,384 H 226 v 12.41203 c 0,24.20759 -5.73992,40.89659 -19.30748,56.13718 -8.84951,9.94075 -31.40241,22.49353 -44.85807,24.96768 l -3.66555,0.67401 -0.63312,2.52255 c -0.76249,3.03801 -1.07107,2.69952 4.72655,5.18467 l 4.72135,2.02381 10.25816,-4.08145 c 14.1863,-5.64436 24.84859,-12.10044 33.59253,-20.34048 11.87076,-11.18668 19.88302,-24.70302 24.30408,-41 l 2.17025,-8 0.0957,-17 c 0.0526,-9.35 -0.26952,-19.13818 -0.71585,-21.75151 l -0.8115,-4.75151 -5.6885,0.55902 c -23.46954,2.3064 -44.97564,6.87148 -55.02195,11.67947 L 170,385.70809 V 374.46451 C 170,351.35193 163.42742,330.48453 149.69569,310 c -4.79706,-7.15608 -22.97457,-26.33388 -30.96141,-32.66516 l -3.76572,-2.98514 3.40191,-7.42485 c 4.85478,-10.59582 10.72333,-27.3968 17.57433,-50.31331 l 5.94576,-19.88847 -2.42566,-3.1802 c -10.18695,-13.35579 -6.58139,-32.65633 11.01806,-58.97957 19.81396,-29.63545 40.09309,-46.506363 65.22045,-54.259154 l 8.79659,-2.714097 19,-0.02045 19,-0.02045 8.5,2.267559 c 11.47365,3.060845 27.14808,10.973985 34.33385,17.333237 7.43515,6.579945 13.86806,16.171865 17.29839,25.793095 1.48189,4.15633 3.63336,8.63476 4.78105,9.95207 4.68232,5.37435 22.04607,11.76616 53.46725,19.68196 15.81979,3.98541 21.63541,6.58164 24.21344,10.80944 l 1.89854,3.11349 0.003,6.5 0.003,6.5 -3.12611,6.5 c -1.71935,3.575 -4.38705,10.00594 -5.9282,14.29097 -3.51505,9.7733 -7.05124,15.84017 -12.8398,22.0286 -10.52546,11.25257 -25.02607,15.75641 -57.0051,17.7056 -9.57044,0.58334 -19.60228,1.53276 -22.29299,2.10981 -10.04188,2.1536 -17.4801,11.03704 -19.87674,23.73874 l -1.21608,6.44502 0.64377,11.27163 c 0.5786,10.13075 1.84022,22.10431 3.12514,29.65963 l 0.46769,2.75 h -10.4099 c -14.37969,0 -18.73605,2.0195 -22.65006,10.5 l -1.84612,4 -0.022,29.60078 -0.022,29.60077 1.13606,3.39923 c 1.45321,4.34815 5.4757,8.76549 9.58182,10.52238 L 267.93576,405 h 14.31626 14.31626 l -0.77145,9.75 c -0.90847,11.48162 -3.87634,27.96691 -7.4263,41.25 -4.21345,15.76569 -14.73256,40.99302 -20.49604,49.15437 -1.03097,1.4599 -1.87449,2.90547 -1.87449,3.21238 0,0.69328 9.78742,-0.0656 25.5,-1.97708 z M 180.1075,456.25758 c 18.68559,-9.96711 31.18797,-29.2983 32.64328,-50.47306 l 0.53027,-7.71548 -9.27709,2.48272 c -5.1024,1.36549 -12.37678,4.11155 -16.16528,6.10235 l -6.88819,3.61964 -5.14557,5.61313 c -5.77604,6.30087 -11.07683,16.84706 -12.62251,25.11312 -1.34342,7.18438 -2.18452,13.34446 -1.75783,12.8739 0.18648,-0.20564 3.13285,-3.90568 6.54747,-8.22231 10.08166,-12.74478 26.04344,-27.96944 27.64477,-26.36811 0.3093,0.30931 -1.28648,3.18456 -3.5462,6.38945 -11.69639,16.58864 -17.85073,25.73892 -20.43694,30.38566 l -2.86632,5.15002 2.36632,-0.71325 c 1.30148,-0.39229 5.3397,-2.29929 8.97382,-4.23778 z M 125.37245,409.25 c -3.17193,-13.10414 -16.15449,-44.80059 -29.96467,-73.15768 -5.734162,-11.77423 -10.228124,-21.60531 -9.986584,-21.84685 0.661935,-0.66193 13.366038,16.78807 21.370874,29.35444 9.54746,14.98805 22.05413,38.43869 27.84437,52.2096 l 4.7553,11.30951 1.30846,-4.30951 C 147.83848,379.29924 145.85865,356.25552 134.87428,335 123.21197,312.43264 98.358502,290.12887 69.637862,276.45616 L 58.5,271.15388 l -0.93468,1.66427 c -0.514074,0.91535 -0.933282,11.11823 -0.931574,22.67306 l 0.0031,21.00879 1.791353,10 c 3.465726,19.34698 9.803061,36.63792 17.656078,48.1733 4.697379,6.90003 16.403931,18.81984 23.425397,23.85213 C 104.993,402.45533 123.18815,412 125.19647,412 c 0.4629,0 0.54209,-1.2375 0.17598,-2.75 z M 228.43698,238.57464 c 8.73004,-4.27121 13.98461,-11.51794 17.27621,-23.82609 l 1.67107,-6.24855 -0.0714,-12 -0.0714,-12 -2.07756,-9.70262 c -1.14266,-5.33644 -3.44698,-14.40359 -5.12072,-20.14922 -1.67374,-5.74563 -3.09349,-11.72946 -3.155,-13.29738 l -0.11184,-2.85078 -1.00214,5 -1.00214,5 1.20582,22 1.20581,22 -1.04757,7.5 c -0.57616,4.125 -1.82463,9.9052 -2.77438,12.84489 l -1.72683,5.34489 -4.3845,4.87662 -4.3845,4.87662 -3.68295,1.02291 c -5.33278,1.48115 -8.87982,1.28486 -17.77298,-0.98355 -8.04065,-2.05095 -24.7551,-9.64672 -31.7772,-14.44094 -2.12698,-1.45216 -4.03004,-2.47749 -4.22902,-2.27851 -0.19898,0.19898 2.5988,3.60561 6.21729,7.57029 14.05346,15.398 30.33475,23.60671 45.13434,22.75586 l 6.25538,-0.35964 z"
       id="path147" />
    <path
       d="M 34.119048,435.4204 11.94456,373.38262 h 13.58399 l 15.699876,45.91473 15.192063,-45.91473 H 69.708255 L 47.491449,435.4204 Z m 63.138045,-14.30339 11.848967,1.98893 q -2.28516,6.51693 -7.23633,9.94467 -4.908861,3.38542 -12.314463,3.38542 -11.72201,0 -17.350267,-7.65951 -4.443362,-6.13607 -4.443362,-15.48829 0,-11.17188 5.839847,-17.47722 5.839846,-6.34766 14.768886,-6.34766 10.029301,0 15.826829,6.64388 5.79753,6.60157 5.54362,20.2702 H 79.949144 q 0.126953,5.28971 2.877605,8.25195 2.750652,2.91992 6.855471,2.91992 2.79297,0 4.697268,-1.52343 1.904298,-1.52344 2.877605,-4.90886 z m 0.677084,-12.01823 q -0.126953,-5.16277 -2.666017,-7.82878 -2.539063,-2.70834 -6.178388,-2.70834 -3.893231,0 -6.432294,2.83529 -2.539064,2.83529 -2.496746,7.70183 z m 42.106133,-18.6198 v 9.47917 h -8.125 v 18.11198 q 0,5.50131 0.21159,6.4323 0.25391,0.88867 1.05794,1.48112 0.84636,0.59245 2.03125,0.59245 1.6504,0 4.78191,-1.14258 l 1.01562,9.22526 q -4.14713,1.77735 -9.39453,1.77735 -3.21615,0 -5.79753,-1.05795 -2.58138,-1.10026 -3.8086,-2.79297 -1.18489,-1.73502 -1.65039,-4.65495 -0.38086,-2.07356 -0.38086,-8.37891 v -19.5931 h -5.45898 v -9.47917 h 5.45898 v -8.92904 l 11.9336,-6.94011 v 15.86915 z m 37.19728,22.13217 v -10.45248 h 26.99871 v 24.71355 q -3.93555,3.8086 -11.42578,6.72852 -7.44792,2.87761 -15.10743,2.87761 -9.73308,0 -16.96941,-4.06251 -7.23633,-4.10482 -10.87565,-11.67969 -3.63933,-7.61719 -3.63933,-16.54623 0,-9.69076 4.0625,-17.22331 4.0625,-7.53256 11.89128,-11.55274 5.9668,-3.0892 14.85353,-3.0892 11.55273,0 18.02735,4.86654 6.51693,4.82422 8.37891,13.3724 l -12.44142,2.32748 q -1.31184,-4.57032 -4.95117,-7.19402 -3.59701,-2.66601 -9.01367,-2.66601 -8.20964,0 -13.07618,5.20508 -4.82422,5.20508 -4.82422,15.44597 0,11.04492 4.90885,16.58855 4.90886,5.5013 12.86459,5.5013 3.93555,0 7.8711,-1.52344 3.97787,-1.56575 6.81315,-3.76628 v -7.87109 z m 64.49222,8.50586 11.84896,1.98893 q -2.28515,6.51693 -7.23633,9.94467 -4.90885,3.38542 -12.31446,3.38542 -11.72201,0 -17.35026,-7.65951 -4.44336,-6.13607 -4.44336,-15.48829 0,-11.17188 5.83984,-17.47722 5.83985,-6.34766 14.76889,-6.34766 10.0293,0 15.82683,6.64388 5.79753,6.60157 5.54362,20.2702 h -29.79168 q 0.12695,5.28971 2.87761,8.25195 2.75065,2.91992 6.85547,2.91992 2.79297,0 4.69727,-1.52343 1.90429,-1.52344 2.8776,-4.90886 z m 0.67708,-12.01823 q -0.12695,-5.16277 -2.66601,-7.82878 -2.53907,-2.70834 -6.17839,-2.70834 -3.89323,0 -6.43229,2.83529 -2.53907,2.83529 -2.49675,7.70183 z m 17.30795,13.49935 11.9336,-1.81966 q 0.76172,3.47005 3.0892,5.28971 2.32747,1.77735 6.51693,1.77735 4.61263,0 6.9401,-1.69271 1.56576,-1.1849 1.56576,-3.17383 0,-1.35417 -0.84635,-2.24284 -0.88868,-0.84635 -3.97787,-1.56575 -14.38803,-3.17383 -18.23894,-5.79753 -5.33203,-3.63933 -5.33203,-10.11394 0,-5.83985 4.61263,-9.81771 4.61263,-3.97787 14.30339,-3.97787 9.22526,0 13.71094,3.00456 4.48568,3.00456 6.17839,8.88672 l -11.2142,2.07357 q -0.7194,-2.6237 -2.75065,-4.02018 -1.98893,-1.39649 -5.71289,-1.39649 -4.69727,0 -6.72852,1.31185 -1.35417,0.93099 -1.35417,2.41211 0,1.26953 1.1849,2.15821 1.60807,1.18489 11.08724,3.3431 9.52149,2.1582 13.28777,5.28971 3.72396,3.17383 3.72396,8.84441 0,6.17838 -5.16276,10.62175 -5.16277,4.44336 -15.2767,4.44336 -9.18295,0 -14.5573,-3.72396 -5.33203,-3.72396 -6.98243,-10.11394 z m 72.99808,-32.11915 v 9.47917 h -8.125 v 18.11198 q 0,5.50131 0.21159,6.4323 0.2539,0.88867 1.05794,1.48112 0.84635,0.59245 2.03125,0.59245 1.65039,0 4.7819,-1.14258 l 1.01563,9.22526 q -4.14714,1.77735 -9.39454,1.77735 -3.21614,0 -5.79752,-1.05795 -2.58139,-1.10026 -3.8086,-2.79297 -1.1849,-1.73502 -1.65039,-4.65495 -0.38086,-2.07356 -0.38086,-8.37891 v -19.5931 h -5.45899 v -9.47917 h 5.45899 v -8.92904 l 11.9336,-6.94011 v 15.86915 z m 8.67513,44.94142 v -61.52997 h 12.52605 v 51.07749 h 31.14585 v 10.45248 z m 52.51631,-51.03518 v -11.0026 h 11.89128 v 11.0026 z m 0,51.03518 v -44.94142 h 11.89128 v 44.94142 z m 64.95772,0 H 446.9708 v -22.93621 q 0,-7.27864 -0.76172,-9.39453 -0.76172,-2.1582 -2.49675,-3.3431 -1.6927,-1.1849 -4.10482,-1.1849 -3.08919,0 -5.54362,1.69271 -2.45443,1.69271 -3.38542,4.48568 -0.88867,2.79297 -0.88867,10.32553 v 20.35482 h -11.89128 v -44.94142 h 11.04493 v 6.60156 q 5.88216,-7.61719 14.8112,-7.61719 3.93555,0 7.19402,1.4388 3.25846,1.39649 4.90885,3.59701 1.69271,2.20052 2.32748,4.99349 0.67708,2.79297 0.67708,7.99805 z m 11.63735,0 v -62.03778 h 11.89128 v 32.92319 l 13.92254,-15.82683 h 14.64193 l -15.36134,16.41927 16.4616,28.52215 h -12.82227 l -11.29883,-20.18555 -5.54363,5.79753 v 14.38802 z"
       id="text149"
       style="display:inline;font-weight:bold;font-size:86.6667px;font-family:Arial;-inkscape-font-specification:'Arial Bold';fill:#053d24;fill-opacity:1;stroke-width:12.4724"
       inkscape:label="path49"
       aria-label="VetGestLink"
       transform="matrix(1.5630175,0,0,1.5630175,-143.51059,-35.199492)" />
  </g>
</svg>
